<svg width="34" height="34" viewBox="0 0 34 34" fill="none" xmlns="http://www.w3.org/2000/svg">
<path d="M3.40002 5.1C3.40002 4.16112 4.16114 3.4 5.10002 3.4H8.75991C9.59094 3.4 10.3002 4.0008 10.4368 4.82052L11.6936 12.3615C11.8163 13.0977 11.4445 13.8278 10.777 14.1615L8.14517 15.4774C10.0429 20.1931 13.8069 23.9572 18.5226 25.8549L19.8385 23.223C20.1723 22.5555 20.9024 22.1837 21.6385 22.3064L29.1795 23.5632C29.9992 23.6999 30.6 24.4091 30.6 25.2401V28.9C30.6 29.8389 29.8389 30.6 28.9 30.6H25.5C13.2945 30.6 3.40002 20.7055 3.40002 8.5V5.1Z" fill="white"/>
</svg>
