<?xml version="1.0" standalone="no"?><svg xmlns="http://www.w3.org/2000/svg" viewBox="0 0 1440 320"><path fill="rgb(239 238 238)" fill-opacity="1" d="M0,96L9.6,96C19.2,96,38,96,58,85.3C76.8,75,96,53,115,37.3C134.4,21,154,11,173,32C192,53,211,107,230,154.7C249.6,203,269,245,288,218.7C307.2,192,326,96,346,96C364.8,96,384,192,403,208C422.4,224,442,160,461,133.3C480,107,499,117,518,133.3C537.6,149,557,171,576,154.7C595.2,139,614,85,634,64C652.8,43,672,53,691,74.7C710.4,96,730,128,749,133.3C768,139,787,117,806,101.3C825.6,85,845,75,864,80C883.2,85,902,107,922,128C940.8,149,960,171,979,154.7C998.4,139,1018,85,1037,69.3C1056,53,1075,75,1094,85.3C1113.6,96,1133,96,1152,106.7C1171.2,117,1190,139,1210,138.7C1228.8,139,1248,117,1267,138.7C1286.4,160,1306,224,1325,218.7C1344,213,1363,139,1382,138.7C1401.6,139,1421,213,1430,250.7L1440,288L1440,0L1430.4,0C1420.8,0,1402,0,1382,0C1363.2,0,1344,0,1325,0C1305.6,0,1286,0,1267,0C1248,0,1229,0,1210,0C1190.4,0,1171,0,1152,0C1132.8,0,1114,0,1094,0C1075.2,0,1056,0,1037,0C1017.6,0,998,0,979,0C960,0,941,0,922,0C902.4,0,883,0,864,0C844.8,0,826,0,806,0C787.2,0,768,0,749,0C729.6,0,710,0,691,0C672,0,653,0,634,0C614.4,0,595,0,576,0C556.8,0,538,0,518,0C499.2,0,480,0,461,0C441.6,0,422,0,403,0C384,0,365,0,346,0C326.4,0,307,0,288,0C268.8,0,250,0,230,0C211.2,0,192,0,173,0C153.6,0,134,0,115,0C96,0,77,0,58,0C38.4,0,19,0,10,0L0,0Z"></path></svg>